<svg width="3944" height="2629" viewBox="0 0 3944 2629" fill="none" xmlns="http://www.w3.org/2000/svg">
<g clip-path="url(#clip0_1130_9607)">
<rect width="2629" height="3943.5" transform="translate(0.00012207 2629) rotate(-90)" fill="#08283F"/>
<circle cx="2701.23" cy="-45.0562" r="268.192" fill="#252D64"/>
<circle cx="3347.04" cy="2003.93" r="476.31" fill="#030B19"/>
<circle cx="2488.83" cy="2875.02" r="944.037" fill="#030B19"/>
<circle cx="1426.78" cy="637.226" r="148.042" stroke="#076A7D" stroke-width="8.58216"/>
<circle cx="1227.25" cy="720.901" r="154.479" fill="#030B19"/>
<circle cx="1553.37" cy="244.592" r="154.479" fill="#030B19"/>
<circle cx="429.108" cy="420.526" r="403.361" fill="#030B19"/>
<circle cx="787.413" cy="1032.01" r="311.103" fill="#030B19"/>
<circle cx="1158.59" cy="549.259" r="197.39" fill="#0D4C60"/>
<circle cx="974.075" cy="669.409" r="137.314" fill="#0D4C60"/>
<mask id="mask0_1130_9607" style="mask-type:alpha" maskUnits="userSpaceOnUse" x="961" y="351" width="396" height="396">
<circle cx="1158.59" cy="549.258" r="197.39" transform="rotate(15 1158.59 549.258)" fill="#80AF6E"/>
</mask>
<g mask="url(#mask0_1130_9607)">
<circle cx="898.5" cy="480.76" r="133.902" transform="rotate(15 898.5 480.76)" fill="#066D80"/>
<circle cx="1418.09" cy="619.983" r="133.902" transform="rotate(15 1418.09 619.983)" fill="#066D80"/>
<circle cx="968.111" cy="740.555" r="133.902" transform="rotate(-45 968.111 740.555)" fill="#066D80"/>
<circle cx="1348.47" cy="360.191" r="133.902" transform="rotate(-45 1348.47 360.191)" fill="#066D80"/>
<circle cx="1227.9" cy="810.165" r="133.902" transform="rotate(-105 1227.9 810.165)" fill="#066D80"/>
<circle cx="1088.68" cy="290.578" r="133.902" transform="rotate(-105 1088.68 290.578)" fill="#066D80"/>
</g>
<circle cx="3585.2" cy="263.901" r="572.859" fill="#030B19"/>
<circle cx="1358.13" cy="-238.155" r="572.859" fill="#030B19"/>
<circle cx="3984.27" cy="929.019" r="199.535" fill="#030B19"/>
<circle cx="613.624" cy="1943.86" r="755.23" fill="#030B19"/>
<circle cx="429.108" cy="2776.33" r="843.197" stroke="#076A7D" stroke-width="12.8732"/>
<circle cx="457" cy="2757.02" r="1051.31" stroke="#076A7D" stroke-width="4.29108"/>
<circle cx="2645.45" cy="830.324" r="139.46" fill="#252D64"/>
<circle cx="3754.69" cy="2334.35" r="188.807" fill="#252D64"/>
<circle cx="-115.859" cy="1626.32" r="317.54" fill="#252D64"/>
<circle cx="898.981" cy="2370.82" r="148.042" stroke="#076A7D" stroke-width="8.58216"/>
<circle cx="2409.44" cy="-15.0188" r="148.042" stroke="#076A7D" stroke-width="8.58216"/>
<circle cx="2909.35" cy="883.963" r="326.122" stroke="#076A7D" stroke-width="8.58216"/>
<circle cx="3516.54" cy="-285.357" r="926.873" stroke="#076A7D" stroke-width="4.29108"/>
<circle cx="3289.11" cy="1160.74" r="426.962" stroke="#076A7D" stroke-width="8.58216"/>
<circle cx="75.0939" cy="1152.15" r="426.962" stroke="#076A7D" stroke-width="8.58216"/>
<circle cx="725.192" cy="1888.08" r="480.601" fill="#047B88"/>
<circle cx="263.901" cy="581.441" r="358.305" fill="#0D4C60"/>
<circle cx="10.7278" cy="976.22" r="178.08" fill="#0D4C60"/>
<circle cx="298.23" cy="632.934" r="263.901" fill="#09263A"/>
<path d="M1205.79 1888.08C1044.88 1888.08 990.621 1888.08 725.192 1888.08C459.764 1888.08 399.07 1888.08 244.592 1888.08C244.592 1622.65 459.764 1407.47 725.192 1407.47C990.621 1407.47 1205.79 1622.65 1205.79 1888.08Z" fill="#0D4C60"/>
<path d="M723.046 2098.34C843.686 2098.34 941.687 2002.63 943.996 1883.78H502.098C504.407 2002.63 602.407 2098.34 723.046 2098.34Z" stroke="#0D4C60" stroke-width="8.58216"/>
<circle cx="1986.77" cy="1626.32" r="244.591" fill="#030B19"/>
<circle cx="2244.23" cy="609.334" r="244.591" fill="#030B19"/>
<circle cx="944.037" cy="1270.16" r="253.174" fill="#545940"/>
<path d="M1197.21 1270.16C1197.21 1409.98 1083.86 1523.33 944.037 1523.33C804.213 1523.33 690.864 1409.98 690.864 1270.16C809 1270.16 804.213 1270.16 944.037 1270.16C1083.86 1270.16 1100 1270.16 1197.21 1270.16Z" fill="#363343"/>
<circle cx="2950.12" cy="1100.66" r="319.685" fill="#030B19"/>
<circle cx="3194.71" cy="1362.42" r="195.244" fill="#030B19"/>
<circle cx="1688.54" cy="1662.79" r="143.751" fill="#030B19"/>
<circle cx="1830.14" cy="1315.22" r="407.652" stroke="#076A7D" stroke-width="4.29108"/>
<circle cx="1830.14" cy="1319.51" r="349.723" stroke="#076A7D" stroke-width="8.58216"/>
<circle cx="1373.14" cy="1707.85" r="85.8216" stroke="#076A7D" stroke-width="8.58216"/>
<circle cx="2426.6" cy="1225.1" r="263.901" fill="#129585"/>
<circle cx="2216.34" cy="1757.2" r="169.498" fill="#2BA393"/>
<path d="M2385.84 1757.2C2385.84 1850.81 2309.95 1926.7 2216.34 1926.7C2122.73 1926.7 2046.84 1850.81 2046.84 1757.2C2111.21 1757.2 2122.73 1757.2 2216.34 1757.2C2309.95 1757.2 2321.47 1757.2 2385.84 1757.2Z" fill="#047B88"/>
<circle cx="1401.04" cy="1418.2" r="169.498" fill="#29978D"/>
<circle cx="1433.22" cy="1162.88" r="55.784" fill="#29978D"/>
<circle cx="2604.68" cy="1450.39" r="308.958" fill="#129585"/>
<circle cx="2501.7" cy="1347.4" r="201.681" fill="#047B88"/>
<circle cx="2656.18" cy="1630.61" r="94.4037" fill="#047B88"/>
<circle cx="575.005" cy="918.292" r="308.958" fill="#3A989C"/>
<mask id="mask1_1130_9607" style="mask-type:alpha" maskUnits="userSpaceOnUse" x="266" y="609" width="618" height="619">
<circle cx="575.005" cy="918.292" r="308.958" fill="#3A989C"/>
</mask>
<g mask="url(#mask1_1130_9607)">
<circle cx="898.981" cy="920.438" r="143.751" fill="#047B88"/>
<circle cx="800.286" cy="650.099" r="143.751" fill="#047B88"/>
<circle cx="529.948" cy="559.987" r="143.751" fill="#047B88"/>
<circle cx="281.066" cy="693.01" r="143.751" fill="#047B88"/>
</g>
<circle cx="2911.5" cy="877.526" r="263.901" fill="#066D80"/>
<circle cx="778.831" cy="203.826" r="263.901" fill="#48A99D"/>
<path d="M1042.73 203.826C1042.73 349.575 924.58 467.728 778.831 467.728C778.831 384.052 778.831 349.575 778.831 203.826C778.831 58.0777 778.831 36.4743 778.831 -60.075C924.58 -60.075 1042.73 58.0777 1042.73 203.826Z" fill="#82BD83"/>
<path d="M3175.4 877.527C3175.4 1023.28 3057.24 1141.43 2911.5 1141.43C2911.5 1053.46 2911.5 1023.28 2911.5 877.527C2911.5 731.778 2911.5 727.339 2911.5 613.625C3057.24 613.625 3175.4 731.778 3175.4 877.527Z" fill="#037A83"/>
<circle cx="2501.7" cy="1343.11" r="17.1643" fill="#C7E2B5"/>
<circle cx="802.432" cy="1381.73" r="154.479" fill="#82BD83"/>
<circle cx="729.483" cy="1497.59" r="154.479" fill="#82BD83"/>
<circle cx="1373.15" cy="849.635" r="141.606" fill="#82BD83"/>
<circle cx="3293.4" cy="1156.45" r="165.206" fill="#82BD83"/>
<path d="M3458.61 1156.45C3458.61 1247.69 3384.64 1321.65 3293.4 1321.65C3202.16 1321.65 3128.2 1247.69 3128.2 1156.45C3181.83 1156.45 3202.16 1156.45 3293.4 1156.45C3384.64 1156.45 3389.95 1156.45 3458.61 1156.45Z" fill="#129585"/>
<circle cx="2456.64" cy="1113.54" r="27.892" fill="#82BD83"/>
<circle cx="2428.75" cy="1064.19" r="17.1643" fill="#82BD83"/>
<circle cx="2300.02" cy="1325.94" r="34.3286" fill="#82BD83"/>
<circle cx="2261.4" cy="1265.87" r="21.4554" fill="#82BD83"/>
<circle cx="2261.4" cy="1210.08" r="21.4554" fill="#82BD83"/>
<circle cx="2285" cy="1165.03" r="15.0188" fill="#82BD83"/>
<circle cx="21.4554" cy="21.4554" r="21.4554" transform="matrix(-1 -8.74228e-08 -8.74228e-08 1 596.991 1077.59)" fill="#82BD83"/>
<circle cx="21.4554" cy="21.4554" r="21.4554" transform="matrix(-1 -8.74228e-08 -8.74228e-08 1 596.991 1029.86)" fill="#82BD83"/>
<ellipse cx="12.8732" cy="12.8732" rx="12.8732" ry="12.8732" transform="matrix(-1 -8.74228e-08 -8.74228e-08 1 587.878 991.24)" fill="#82BD83"/>
<ellipse cx="6.43662" cy="6.43662" rx="6.43662" ry="6.43662" transform="matrix(-1 -8.74228e-08 -8.74228e-08 1 755.23 1064.19)" fill="#046472"/>
<ellipse cx="12.8732" cy="12.8732" rx="12.8732" ry="12.8732" transform="matrix(-1 -8.74228e-08 -8.74228e-08 1 587.878 1158.59)" fill="#82BD83"/>
<ellipse cx="12.8732" cy="12.8732" rx="12.8732" ry="12.8732" transform="matrix(-1 -8.74228e-08 -8.74228e-08 1 587.878 656.536)" fill="#82BD83"/>
<ellipse cx="12.8732" cy="12.8732" rx="12.8732" ry="12.8732" transform="matrix(-1 -8.74228e-08 -8.74228e-08 1 587.878 1038.44)" fill="#A35B53"/>
<ellipse cx="12.8732" cy="12.8732" rx="12.8732" ry="12.8732" transform="matrix(-1 -8.74228e-08 -8.74228e-08 1 587.878 1085.64)" fill="#D2A298"/>
<circle cx="1604.86" cy="1600.57" r="137.314" fill="#076A7D"/>
<path d="M626.497 369.033C626.497 470.939 543.887 553.549 441.981 553.549C340.076 553.549 257.465 470.939 257.465 369.033C257.465 267.127 340.076 184.517 441.981 184.517C543.887 184.517 626.497 267.127 626.497 369.033Z" fill="#047B88"/>
<path d="M626.497 369.033C626.497 470.938 543.887 553.549 441.981 553.549C340.076 553.549 257.465 470.938 257.465 369.033C319.685 369.032 340.076 369.034 441.981 369.034C543.887 369.034 549.258 369.033 626.497 369.033Z" fill="#066D80"/>
<circle cx="409.798" cy="-45.0563" r="139.46" fill="#047B88"/>
<circle cx="1439.66" cy="1778.65" r="40.7652" fill="#076A7D"/>
<circle cx="2505.99" cy="1081.35" r="21.4554" fill="#82BD83"/>
<circle cx="21.4554" cy="21.4554" r="21.4554" transform="matrix(-0.965926 0.258819 0.258819 0.965926 2790.28 832.47)" fill="#82BD83"/>
<circle cx="21.4554" cy="21.4554" r="21.4554" transform="matrix(-0.707107 0.707107 0.707107 0.707107 2781.01 883.963)" fill="#82BD83"/>
<circle cx="21.4554" cy="21.4554" r="21.4554" transform="matrix(-0.258819 0.965926 0.965926 0.258819 2801.29 931.165)" fill="#82BD83"/>
<circle cx="12.8732" cy="12.8732" r="12.8732" transform="matrix(-0.965926 0.258819 0.258819 0.965926 2742.47 836.398)" fill="#82BD83"/>
<circle cx="12.8732" cy="12.8732" r="12.8732" transform="matrix(-0.707107 0.707107 0.707107 0.707107 2741.57 911.273)" fill="#82BD83"/>
<circle cx="12.8732" cy="12.8732" r="12.8732" transform="matrix(-0.258819 0.965926 0.965926 0.258819 2780.78 974.539)" fill="#82BD83"/>
<circle cx="8.58216" cy="8.58216" r="8.58216" transform="matrix(-0.965926 0.258819 0.258819 0.965926 2707.09 836.993)" fill="#82BD83"/>
<circle cx="8.58216" cy="8.58216" r="8.58216" transform="matrix(-0.707107 0.707107 0.707107 0.707107 2711.23 929.477)" fill="#82BD83"/>
<circle cx="8.58216" cy="8.58216" r="8.58216" transform="matrix(-0.258819 0.965926 0.965926 0.258819 2763.61 1005.48)" fill="#82BD83"/>
<circle cx="21.4554" cy="21.4554" r="21.4554" transform="matrix(0.965926 -0.258819 -0.258819 -0.965926 983.619 1777.43)" fill="#82BD83"/>
<circle cx="21.4554" cy="21.4554" r="21.4554" transform="matrix(0.707107 -0.707107 -0.707107 -0.707107 992.886 1725.94)" fill="#82BD83"/>
<circle cx="21.4554" cy="21.4554" r="21.4554" transform="matrix(0.258819 -0.965926 -0.965926 -0.258819 972.613 1678.74)" fill="#82BD83"/>
<circle cx="12.8732" cy="12.8732" r="12.8732" transform="matrix(0.965926 -0.258819 -0.258819 -0.965926 1031.43 1773.51)" fill="#82BD83"/>
<circle cx="12.8732" cy="12.8732" r="12.8732" transform="matrix(0.707107 -0.707107 -0.707107 -0.707107 1032.33 1698.63)" fill="#82BD83"/>
<circle cx="12.8732" cy="12.8732" r="12.8732" transform="matrix(0.258819 -0.965926 -0.965926 -0.258819 993.118 1635.37)" fill="#82BD83"/>
<circle cx="8.58216" cy="8.58216" r="8.58216" transform="matrix(0.965926 -0.258819 -0.258819 -0.965926 1066.81 1772.91)" fill="#82BD83"/>
<circle cx="8.58216" cy="8.58216" r="8.58216" transform="matrix(0.707107 -0.707107 -0.707107 -0.707107 1062.67 1680.43)" fill="#82BD83"/>
<circle cx="8.58216" cy="8.58216" r="8.58216" transform="matrix(0.258819 -0.965926 -0.965926 -0.258819 1010.29 1604.43)" fill="#82BD83"/>
<circle cx="21.4554" cy="21.4554" r="21.4554" transform="matrix(0.965926 -0.258819 -0.258819 -0.965926 3030.46 884.892)" fill="#82BD83"/>
<circle cx="21.4554" cy="21.4554" r="21.4554" transform="matrix(0.707107 -0.707107 -0.707107 -0.707107 3039.73 833.398)" fill="#82BD83"/>
<circle cx="21.4554" cy="21.4554" r="21.4554" transform="matrix(0.258819 -0.965926 -0.965926 -0.258819 3019.46 786.197)" fill="#82BD83"/>
<circle cx="12.8732" cy="12.8732" r="12.8732" transform="matrix(0.965926 -0.258819 -0.258819 -0.965926 3078.28 880.964)" fill="#82BD83"/>
<circle cx="12.8732" cy="12.8732" r="12.8732" transform="matrix(0.707107 -0.707107 -0.707107 -0.707107 3079.18 806.089)" fill="#82BD83"/>
<circle cx="12.8732" cy="12.8732" r="12.8732" transform="matrix(0.258819 -0.965926 -0.965926 -0.258819 3039.96 742.823)" fill="#82BD83"/>
<circle cx="8.58216" cy="8.58216" r="8.58216" transform="matrix(0.965926 -0.258819 -0.258819 -0.965926 3113.66 880.369)" fill="#82BD83"/>
<circle cx="8.58216" cy="8.58216" r="8.58216" transform="matrix(0.707107 -0.707107 -0.707107 -0.707107 3109.52 787.884)" fill="#82BD83"/>
<circle cx="8.58216" cy="8.58216" r="8.58216" transform="matrix(0.258819 -0.965926 -0.965926 -0.258819 3057.14 711.886)" fill="#82BD83"/>
<circle cx="2456.64" cy="1113.54" r="19.3099" fill="#A35B53"/>
<path d="M2319.17 1326.25C2319.17 1336.91 2310.53 1345.56 2299.86 1345.56C2289.2 1345.56 2280.55 1336.91 2280.55 1326.25C2280.55 1315.58 2289.2 1306.94 2299.86 1306.94C2310.53 1306.94 2319.17 1315.58 2319.17 1326.25Z" fill="#A35B53"/>
<circle cx="2505.99" cy="1081.35" r="12.8732" fill="#A35B53"/>
<circle cx="3003.75" cy="759.522" r="12.8732" fill="#A35B53"/>
<path d="M3053.1 802.611C3053.1 809.72 3047.34 815.484 3040.23 815.484C3033.12 815.484 3027.36 809.72 3027.36 802.611C3027.36 795.501 3033.12 789.737 3040.23 789.737C3047.34 789.737 3053.1 795.501 3053.1 802.611Z" fill="#A35B53"/>
<path d="M3058.84 858.309C3058.84 865.418 3053.07 871.182 3045.96 871.182C3038.85 871.182 3033.09 865.418 3033.09 858.309C3033.09 851.199 3038.85 845.435 3045.96 845.435C3053.07 845.435 3058.84 851.199 3058.84 858.309Z" fill="#A35B53"/>
<circle cx="1789.38" cy="1381.73" r="300.375" fill="#076A7D"/>
<circle cx="1770.07" cy="1392.46" r="225.282" fill="#047B88"/>
<circle cx="2149.83" cy="493.475" r="287.502" fill="#047B88"/>
<circle cx="3256.93" cy="1879.49" r="441.981" fill="#047B88"/>
<circle cx="2907.21" cy="2091.9" r="323.976" fill="#047B88"/>
<mask id="mask2_1130_9607" style="mask-type:alpha" maskUnits="userSpaceOnUse" x="2583" y="1767" width="649" height="649">
<circle cx="2907.21" cy="2091.9" r="323.976" fill="#047B88"/>
</mask>
<g mask="url(#mask2_1130_9607)">
<circle cx="2926.52" cy="2334.35" r="223.136" fill="#3A989C"/>
<circle cx="2578.94" cy="2269.98" r="145.897" fill="#3A989C"/>
</g>
<circle cx="3332.02" cy="1967.46" r="285.357" fill="#066D80"/>
<circle cx="3606.65" cy="2705.52" r="268.192" fill="#00509A"/>
<circle cx="3458.61" cy="-145.896" r="699.446" fill="#05394A"/>
<path d="M3458.61 -145.896C3458.61 240.397 3458.61 341.141 3458.61 553.549C3072.32 553.549 2759.16 240.397 2759.16 -145.896C2759.16 -532.189 3072.32 -845.342 3458.61 -845.342C3458.61 -484.891 3458.61 -532.189 3458.61 -145.896Z" fill="#0D4C60"/>
<path d="M1729.3 1422.49V1566.24" stroke="#C7E2B5" stroke-width="4.29108" stroke-linecap="round"/>
<circle cx="1607.01" cy="817.45" r="62.2206" fill="#76B5B4"/>
<circle cx="3653.85" cy="2091.9" r="96.5493" fill="#76B5B4"/>
<circle cx="3774" cy="2508.14" r="49.3474" fill="#76B5B4"/>
<circle cx="2010.37" cy="1375.29" r="23.6009" fill="#559CC0"/>
<circle cx="1988.91" cy="1473.99" r="23.6009" fill="#559CC0"/>
<circle cx="1755.05" cy="1214.38" r="12.8732" fill="#559CC0"/>
<circle cx="1812.98" cy="1165.03" r="23.6009" fill="#559CC0"/>
<circle cx="1572.68" cy="1345.25" r="57.9296" fill="#559CC0"/>
<circle cx="1729.3" cy="1420.35" r="17.1643" fill="#C7E2B5"/>
<circle cx="575.005" cy="918.292" r="17.1643" fill="#C7E2B5"/>
<circle cx="778.9" cy="112.383" r="17.1643" transform="rotate(135 778.9 112.383)" fill="#C7E2B5"/>
<circle cx="774.54" cy="1426.78" r="10.7277" fill="#129585"/>
<path d="M1729.3 1416.06V1276.6" stroke="#C7E2B5" stroke-width="4.29108" stroke-linecap="round"/>
<path d="M1729.3 1248.7V1268.01" stroke="#C7E2B5" stroke-width="4.29108" stroke-linecap="round"/>
<path d="M1729.3 1218.67V1233.69" stroke="#C7E2B5" stroke-width="4.29108" stroke-linecap="round"/>
<path d="M1934.65 1218.04C1935.49 1217.2 1935.49 1215.84 1934.65 1215C1933.81 1214.17 1932.45 1214.17 1931.61 1215L1934.65 1218.04ZM1729.3 1420.35L1730.82 1421.87L1934.65 1218.04L1933.13 1216.52L1931.61 1215L1727.79 1418.83L1729.3 1420.35Z" fill="#C7E2B5"/>
<path d="M489.772 963.63L824.087 778.161" stroke="#C7E2B5" stroke-width="4.29108" stroke-linecap="round"/>
<path d="M807.11 20.0557L701.86 387.598" stroke="#C7E2B5" stroke-width="4.29108" stroke-linecap="round"/>
<path d="M575.005 918.497L811.014 918.292" stroke="#C7E2B5" stroke-width="4.29108" stroke-linecap="round"/>
<path d="M781.221 115.859L899.403 320.147" stroke="#C7E2B5" stroke-width="4.29108" stroke-linecap="round"/>
<path d="M2056.85 361.629L2242.32 695.944" stroke="#0D4C60" stroke-width="4.29108" stroke-linecap="round"/>
<path d="M2355.98 1078.32L2626.66 1566.24M2688.6 1677.89L2679.78 1662.79M2658.8 1624.17L2633.81 1579.12" stroke="#C7E2B5" stroke-width="4.29108" stroke-linecap="round"/>
<path d="M1941.71 1207.94L1948.15 1201.5" stroke="#C7E2B5" stroke-width="4.29108" stroke-linecap="round"/>
<path d="M1729.3 1420.35H2014.66" stroke="#C7E2B5" stroke-width="4.29108" stroke-linecap="round"/>
<path d="M1828.63 1522.71C1829.47 1523.54 1830.82 1523.54 1831.66 1522.71C1832.5 1521.87 1832.5 1520.51 1831.66 1519.67L1828.63 1522.71ZM1729.3 1420.35L1727.79 1421.86L1828.63 1522.71L1830.14 1521.19L1831.66 1519.67L1730.82 1418.83L1729.3 1420.35Z" fill="#C7E2B5"/>
<path d="M1838.73 1529.77L1858.04 1549.08" stroke="#C7E2B5" stroke-width="4.29108" stroke-linecap="round"/>
<path d="M1866.62 1557.66L1875.2 1566.24" stroke="#C7E2B5" stroke-width="4.29108" stroke-linecap="round"/>
<path d="M1729.3 1420.35H1589.84" stroke="#C7E2B5" stroke-width="4.29108" stroke-linecap="round"/>
<path d="M1731.45 1420.35L1630.61 1319.51" stroke="#C7E2B5" stroke-width="4.29108" stroke-linecap="round"/>
<path d="M640.326 1037.99L504.904 793.885" stroke="#C7E2B5" stroke-width="4.29108" stroke-linecap="round"/>
<path d="M648.073 73.9337L916.438 150.783" stroke="#C7E2B5" stroke-width="4.29108" stroke-linecap="round"/>
<path d="M2383.46 1461.46L2649.51 1195.41" stroke="#C7E2B5" stroke-width="4.29108" stroke-linecap="round"/>
<path d="M2425.01 1319.58C2423.87 1319.27 2422.69 1319.95 2422.39 1321.1C2422.08 1322.24 2422.76 1323.42 2423.9 1323.73L2425.01 1319.58ZM2797.8 1413.31C2794.64 1407.84 2787.64 1405.96 2782.16 1409.12C2776.69 1412.28 2774.82 1419.28 2777.98 1424.75C2781.14 1430.23 2788.13 1432.1 2793.61 1428.94C2799.08 1425.78 2800.96 1418.78 2797.8 1413.31ZM2424.46 1321.65L2423.9 1323.73L2787.33 1421.11L2787.89 1419.03L2788.44 1416.96L2425.01 1319.58L2424.46 1321.65Z" fill="#C7E2B5"/>
<path d="M2348.65 1374.79C2343.18 1371.63 2336.18 1373.51 2333.02 1378.98C2329.86 1384.46 2331.73 1391.45 2337.21 1394.61C2342.68 1397.77 2349.68 1395.9 2352.84 1390.43C2356 1384.95 2354.12 1377.95 2348.65 1374.79ZM2712.08 1277.41C2706.6 1274.26 2699.61 1276.13 2696.45 1281.6C2693.29 1287.08 2695.16 1294.07 2700.63 1297.23C2706.11 1300.39 2713.11 1298.52 2716.27 1293.05C2719.42 1287.57 2717.55 1280.57 2712.08 1277.41ZM2342.93 1384.7L2343.48 1386.78L2706.91 1289.4L2706.36 1287.32L2705.8 1285.25L2342.37 1382.63L2342.93 1384.7Z" fill="#C7E2B5"/>
<path d="M737.126 996.326L372.736 818.266" stroke="#C7E2B5" stroke-width="4.29108" stroke-linecap="round"/>
<path d="M609.084 171.841L943.332 57.0286" stroke="#C7E2B5" stroke-width="4.29108" stroke-linecap="round"/>
<path d="M2024.15 608.983L2202.21 244.593" stroke="#0D4C60" stroke-width="4.29108" stroke-linecap="round"/>
<path d="M2378.96 1577.96C2372.98 1580.02 2369.8 1586.53 2371.86 1592.5C2373.91 1598.48 2380.42 1601.66 2386.4 1599.61C2392.37 1597.56 2395.55 1591.05 2393.5 1585.07C2391.45 1579.09 2384.94 1575.91 2378.96 1577.96ZM2597.56 1130.61C2591.59 1132.66 2588.41 1139.17 2590.46 1145.15C2592.51 1151.12 2599.02 1154.3 2605 1152.25C2610.98 1150.2 2614.16 1143.69 2612.1 1137.71C2610.05 1131.73 2603.54 1128.55 2597.56 1130.61ZM2382.68 1588.79L2384.61 1589.73L2603.21 1142.37L2601.28 1141.43L2599.35 1140.49L2380.75 1587.84L2382.68 1588.79Z" fill="#C7E2B5"/>
<path d="M1729.3 1420.35L1669.23 1480.42" stroke="#C7E2B5" stroke-width="4.29108" stroke-linecap="round"/>
<path d="M1652.07 1497.59L1613.45 1536.21" stroke="#C7E2B5" stroke-width="4.29108" stroke-linecap="round"/>
<path d="M1731.45 1420.35L1881.64 1355.98" stroke="#C7E2B5" stroke-width="4.29108" stroke-linecap="round"/>
<path d="M1776.46 1542.51L1734.13 1433.22" stroke="#C7E2B5" stroke-width="4.29108" stroke-linecap="round"/>
<circle cx="2293.58" cy="1761.49" r="79.3849" fill="#84C2C1"/>
<circle cx="2203.47" cy="1654.21" r="27.892" fill="#84C2C1"/>
<circle cx="2860" cy="1495.44" r="27.892" fill="#84C2C1"/>
<circle cx="2834.26" cy="1568.39" r="27.892" fill="#84C2C1"/>
<circle cx="2540.32" cy="1703.56" r="21.4554" fill="#84C2C1"/>
<mask id="mask3_1130_9607" style="mask-type:alpha" maskUnits="userSpaceOnUse" x="1489" y="1081" width="601" height="602">
<circle cx="1789.38" cy="1381.73" r="300.375" fill="#076A7D"/>
</mask>
<g mask="url(#mask3_1130_9607)">
<circle cx="1667.08" cy="1053.46" r="122.296" fill="#0D4C60"/>
<circle cx="1838.73" cy="1705.7" r="122.296" fill="#0D4C60"/>
<circle cx="1885.93" cy="1010.55" r="122.296" fill="#0D4C60"/>
</g>
<circle cx="2847.13" cy="611.48" r="122.296" fill="#0D4C60"/>
<circle cx="2269.98" cy="386.197" r="68.6572" fill="#0D4C60"/>
<rect x="562.131" y="708.029" width="25.7465" height="133.023" rx="12.8732" fill="#82BD83"/>
<circle cx="21.4554" cy="21.4554" r="21.4554" transform="matrix(-0.866025 -0.5 -0.5 0.866025 514.395 1067.24)" fill="#82BD83"/>
<circle cx="21.4554" cy="21.4554" r="21.4554" transform="matrix(-0.866025 -0.5 -0.5 0.866025 538.261 1025.91)" fill="#82BD83"/>
<ellipse cx="12.8732" cy="12.8732" rx="12.8732" ry="12.8732" transform="matrix(-0.866025 -0.5 -0.5 0.866025 549.679 987.903)" fill="#82BD83"/>
<ellipse cx="12.8732" cy="12.8732" rx="12.8732" ry="12.8732" transform="matrix(-0.866025 -0.5 -0.5 0.866025 466.003 1132.83)" fill="#82BD83"/>
<ellipse cx="12.8732" cy="12.8732" rx="12.8732" ry="12.8732" transform="matrix(-0.866025 -0.5 -0.5 0.866025 717.031 698.041)" fill="#82BD83"/>
<circle cx="8.00729" cy="8.00729" r="8.00729" transform="matrix(-0.866025 -0.5 -0.5 0.866025 584.582 471.444)" fill="#DCF3DD"/>
<ellipse cx="12.8732" cy="12.8732" rx="12.8732" ry="12.8732" transform="matrix(-0.866025 -0.5 -0.5 0.866025 567.264 214.554)" fill="#DCF3DD"/>
<ellipse cx="12.8732" cy="12.8732" rx="12.8732" ry="12.8732" transform="matrix(-0.866025 -0.5 -0.5 0.866025 987.79 317.54)" fill="#1C998D"/>
<ellipse cx="12.8732" cy="12.8732" rx="12.8732" ry="12.8732" transform="matrix(-0.866025 -0.5 -0.5 0.866025 1004.95 287.502)" fill="#1C998D"/>
<ellipse cx="51.5493" cy="51.5493" rx="51.5493" ry="51.5493" transform="matrix(-0.866025 -0.5 -0.5 0.866025 938.976 -34.2717)" fill="#1C998D"/>
<ellipse cx="12.8732" cy="12.8732" rx="12.8732" ry="12.8732" transform="matrix(-0.866025 -0.5 -0.5 0.866025 760.363 1128.55)" fill="#046472"/>
<ellipse cx="12.8732" cy="12.8732" rx="12.8732" ry="12.8732" transform="matrix(-0.866025 -0.5 -0.5 0.866025 726.034 1154.3)" fill="#046472"/>
<ellipse cx="12.8732" cy="12.8732" rx="12.8732" ry="12.8732" transform="matrix(-0.866025 -0.5 -0.5 0.866025 526.078 1028.78)" fill="#A35B53"/>
<ellipse cx="12.8732" cy="12.8732" rx="12.8732" ry="12.8732" transform="matrix(-0.866025 -0.5 -0.5 0.866025 502.477 1069.66)" fill="#D2A298"/>
<rect x="668.987" y="729.762" width="25.7465" height="133.023" rx="12.8732" transform="rotate(30 668.987 729.762)" fill="#82BD83"/>
<ellipse cx="8.58216" cy="8.58216" rx="8.58216" ry="8.58216" transform="matrix(-1 -8.74228e-08 -8.74228e-08 1 682.281 738.067)" fill="#D2A298"/>
<circle cx="332.559" cy="856.071" r="32.1831" fill="#A0C8C3"/>
<circle cx="392.634" cy="753.084" r="45.0563" fill="#A0C8C3"/>
<circle cx="602.897" cy="62.2206" r="27.892" fill="#A0C8C3"/>
<circle cx="821.742" cy="1014.84" r="32.1831" fill="#A0C8C3"/>
<circle cx="2087.61" cy="718.757" r="32.1831" fill="#559CC0"/>
<circle cx="1963.17" cy="1306.63" r="40.7652" fill="#559CC0"/>
<circle cx="1894.51" cy="1165.03" r="40.7652" fill="#559CC0"/>
<circle cx="1607.01" cy="1246.56" r="32.1831" fill="#559CC0"/>
<circle cx="1677.81" cy="1622.03" r="47.2019" fill="#11497D"/>
<circle cx="1568.39" cy="1491.15" r="32.1831" fill="#11497D"/>
<circle cx="2460.93" cy="843.197" r="87.9671" fill="#00509A"/>
<circle cx="856.07" cy="577.15" r="57.9296" fill="#00509A"/>
<circle cx="3477.92" cy="2465.22" r="96.5493" fill="#047B88"/>
<path d="M1714.29 1622.03C1714.29 1642.17 1697.96 1658.5 1677.81 1658.5C1657.67 1658.5 1641.34 1642.17 1641.34 1622.03C1641.34 1601.88 1657.67 1585.55 1677.81 1585.55C1697.96 1585.55 1714.29 1601.88 1714.29 1622.03Z" fill="#559CC0"/>
<path d="M1767.92 1622.03C1767.92 1631.51 1760.24 1639.19 1750.76 1639.19C1741.28 1639.19 1733.6 1631.51 1733.6 1622.03C1733.6 1612.55 1741.28 1604.86 1750.76 1604.86C1760.24 1604.86 1767.92 1612.55 1767.92 1622.03Z" fill="#559CC0"/>
<circle cx="2018.95" cy="697.302" r="23.6009" fill="#559CC0"/>
<circle cx="1274.45" cy="914.001" r="16.0915" fill="#A1CFC0" stroke="#1C998D" stroke-width="2.14554"/>
<circle cx="1450.38" cy="931.165" r="17.1643" fill="#1C998D"/>
<circle cx="1373.15" cy="849.633" r="4.29108" fill="#1C998D"/>
<circle cx="1280.89" cy="791.705" r="27.892" fill="#1C998D"/>
<circle cx="1259.43" cy="834.616" r="15.0188" fill="#1C998D"/>
<circle cx="1371" cy="735.92" r="15.0188" fill="#1C998D"/>
<circle cx="1293.76" cy="941.893" r="9.65493" fill="#A1CFC0" stroke="#1C998D" stroke-width="2.14554"/>
<circle cx="789.558" cy="1089.93" r="15.0188" fill="#A0C8C3" stroke="#046472" stroke-width="4.29108"/>
<circle cx="785.267" cy="1089.93" r="28.9648" stroke="#046472" stroke-width="2.14554"/>
<circle cx="1443.95" cy="1448.24" r="10.7277" fill="#CBECD4"/>
<circle cx="2162.7" cy="1085.64" r="120.15" fill="#067471"/>
<circle cx="2909.35" cy="849.635" r="12.8732" fill="#A0D2C7"/>
<path d="M697.609 1556.55L860.67 1286.22" stroke="#129585" stroke-width="4.29108" stroke-linecap="round"/>
<path d="M774.54 1482.57L774.54 1261.58" stroke="#129585" stroke-width="4.29108" stroke-linecap="round"/>
<path d="M686.573 1426.78L862.507 1426.78" stroke="#129585" stroke-width="4.29108" stroke-linecap="round"/>
<path d="M699.446 1351.69L845.342 1497.59" stroke="#129585" stroke-width="4.29108" stroke-linecap="round"/>
<circle cx="774.54" cy="1426.78" r="6.43662" fill="#C7E2B5"/>
<mask id="mask4_1130_9607" style="mask-type:alpha" maskUnits="userSpaceOnUse" x="575" y="1343" width="309" height="310">
<circle cx="729.483" cy="1497.59" r="154.479" fill="#82BD83"/>
</mask>
<g mask="url(#mask4_1130_9607)">
<circle cx="804.577" cy="1637.05" r="118.005" fill="#129585"/>
<circle cx="592.169" cy="1630.61" r="94.4037" fill="#129585"/>
</g>
<path d="M899.172 1103.8C902.362 1102.94 905.282 1105.86 904.427 1109.05L890 1162.9C889.145 1166.09 885.157 1167.16 882.821 1164.82L843.405 1125.4C841.069 1123.07 842.138 1119.08 845.328 1118.23L899.172 1103.8Z" fill="#D2A298"/>
<path d="M384.052 1221.39C386.912 1223.04 386.912 1227.17 384.052 1228.82L335.777 1256.69C332.916 1258.34 329.34 1256.28 329.34 1252.98L329.34 1197.23C329.34 1193.93 332.916 1191.86 335.777 1193.52L384.052 1221.39Z" fill="#FEDE88"/>
<path d="M2442.62 1666.05C2439.32 1666.05 2437.25 1662.47 2438.9 1659.61L2479.78 1588.81C2481.43 1585.95 2485.56 1585.95 2487.21 1588.81L2528.09 1659.61C2529.74 1662.47 2527.68 1666.05 2524.38 1666.05L2442.62 1666.05Z" fill="#FFCB46"/>
<path d="M3401.06 548.322C3398.73 545.986 3399.8 541.998 3402.99 541.143L3481.96 519.983C3485.15 519.128 3488.07 522.047 3487.21 525.238L3466.05 604.208C3465.2 607.399 3461.21 608.468 3458.87 606.132L3401.06 548.322Z" fill="#D2A298"/>
<path d="M3358.96 457.623C3358.96 454.32 3362.54 452.255 3365.4 453.907L3402.9 475.559C3405.76 477.211 3405.76 481.34 3402.9 482.991L3365.4 504.644C3362.54 506.295 3358.96 504.231 3358.96 500.927L3358.96 457.623Z" fill="#D2A298"/>
<path d="M3365.32 572.643C3368.62 572.643 3370.69 576.219 3369.03 579.08L3356.45 600.869C3354.8 603.73 3350.67 603.73 3349.02 600.869L3336.44 579.08C3334.79 576.219 3336.85 572.643 3340.16 572.643L3365.32 572.643Z" fill="#D2A298"/>
<path d="M870.76 1198.74C873.096 1201.08 872.027 1205.07 868.837 1205.92L836.829 1214.5C833.639 1215.35 830.719 1212.43 831.574 1209.24L840.15 1177.23C841.005 1174.04 844.994 1172.98 847.329 1175.31L870.76 1198.74Z" fill="#D2A298"/>
<circle cx="1332.38" cy="774.541" r="43.9835" fill="#A1CFC0" stroke="#1C998D" stroke-width="2.14554"/>
<circle cx="931.164" cy="369.033" r="28.9648" fill="#A1CFC0" stroke="#1C998D" stroke-width="2.14554"/>
<circle cx="877.526" cy="405.507" r="22.5282" fill="#A1CFC0" stroke="#1C998D" stroke-width="2.14554"/>
<mask id="mask5_1130_9607" style="mask-type:alpha" maskUnits="userSpaceOnUse" x="2814" y="1437" width="885" height="885">
<circle cx="3256.93" cy="1879.49" r="441.981" fill="#047B88"/>
</mask>
<g mask="url(#mask5_1130_9607)">
<circle cx="3029.5" cy="1544.79" r="308.958" fill="#3A989C"/>
<circle cx="3608.8" cy="1476.13" r="308.958" fill="#3A989C"/>
</g>
<mask id="mask6_1130_9607" style="mask-type:alpha" maskUnits="userSpaceOnUse" x="1862" y="205" width="576" height="576">
<circle cx="2149.83" cy="493.475" r="287.502" fill="#047B88"/>
</mask>
<g mask="url(#mask6_1130_9607)">
<circle cx="2364.38" cy="682.282" r="111.568" fill="#0D4C60"/>
<circle cx="2445.91" cy="510.639" r="85.8216" fill="#0D4C60"/>
<circle cx="1853.75" cy="557.841" r="111.568" fill="#0D4C60"/>
</g>
<circle cx="3342.03" cy="1968.45" r="17.1643" transform="rotate(-120 3342.03 1968.45)" fill="#0D4C60"/>
<circle cx="699.747" cy="1885.01" r="17.1643" transform="rotate(120 699.747 1885.01)" fill="#82BD83"/>
<path d="M3185.58 2227.04L3472.79 1748.66M3538.51 1639.19L3529.85 1654.39M3506.89 1691.86L3480.37 1736.04" stroke="#0D4C60" stroke-width="8.58216" stroke-linecap="round"/>
<path d="M3366.59 2125.46C3360.27 2136.41 3364.02 2150.4 3374.97 2156.72C3385.91 2163.04 3399.91 2159.29 3406.23 2148.35C3412.55 2137.4 3408.8 2123.4 3397.85 2117.08C3386.91 2110.77 3372.91 2114.52 3366.59 2125.46ZM3244.87 1671.2C3238.55 1682.15 3242.3 1696.14 3253.25 1702.46C3264.19 1708.78 3278.19 1705.03 3284.51 1694.08C3290.83 1683.14 3287.08 1669.14 3276.13 1662.82C3265.19 1656.5 3251.19 1660.25 3244.87 1671.2ZM3386.41 2136.9L3390.55 2135.79L3268.84 1681.53L3264.69 1682.64L3260.55 1683.75L3382.26 2138.02L3386.41 2136.9Z" fill="#0D4C60"/>
<path d="M815.305 1795.1C827.944 1795.1 838.191 1784.85 838.191 1772.21C838.191 1759.58 827.944 1749.33 815.305 1749.33C802.665 1749.33 792.419 1759.58 792.419 1772.21C792.419 1784.85 802.665 1795.1 815.305 1795.1ZM473.295 2103.87C471.608 2105.53 471.591 2108.25 473.256 2109.93C474.921 2111.62 477.638 2111.64 479.325 2109.97L473.295 2103.87ZM815.305 1772.21L812.29 1769.16L473.295 2103.87L476.31 2106.92L479.325 2109.97L818.32 1775.27L815.305 1772.21Z" fill="#82BD83"/>
<path d="M3437.15 2064.01L3029.5 1656.36" stroke="#0D4C60" stroke-width="8.58216" stroke-linecap="round"/>
<path d="M751.547 1692.89L601.482 2252.93" stroke="#82BD83" stroke-width="8.58216" stroke-linecap="round"/>
<path d="M3432.22 1920.06C3434.27 1918.88 3434.98 1916.25 3433.79 1914.2C3432.61 1912.15 3429.98 1911.44 3427.93 1912.63L3432.22 1920.06ZM2924.88 2226.7C2937.09 2229.97 2949.64 2222.73 2952.91 2210.52C2956.18 2198.31 2948.94 2185.76 2936.73 2182.49C2924.52 2179.22 2911.97 2186.47 2908.7 2198.67C2905.43 2210.88 2912.67 2223.43 2924.88 2226.7ZM3430.08 1916.34L3427.93 1912.63L2928.66 2200.88L2930.81 2204.6L2932.95 2208.31L3432.22 1920.06L3430.08 1916.34Z" fill="#0D4C60"/>
<path d="M443.921 1719.89C440.649 1707.69 428.1 1700.44 415.892 1703.71C403.683 1706.98 396.438 1719.53 399.709 1731.74C402.98 1743.95 415.529 1751.2 427.738 1747.92C439.947 1744.65 447.192 1732.1 443.921 1719.89ZM1014.49 2072.95C1016.54 2074.14 1019.16 2073.43 1020.35 2071.38C1021.53 2069.33 1020.83 2066.71 1018.78 2065.52L1014.49 2072.95ZM421.815 1725.82L419.669 1729.53L1014.49 2072.95L1016.63 2069.24L1018.78 2065.52L423.96 1722.1L421.815 1725.82Z" fill="#82BD83"/>
<path d="M577.235 1640.82C580.506 1628.62 573.261 1616.07 561.052 1612.8C548.843 1609.52 536.294 1616.77 533.023 1628.98C529.752 1641.19 536.997 1653.74 549.206 1657.01C561.414 1660.28 573.964 1653.03 577.235 1640.82ZM928.366 2249C931.638 2236.79 924.393 2224.24 912.184 2220.97C899.975 2217.7 887.426 2224.95 884.155 2237.16C880.883 2249.37 888.128 2261.91 900.337 2265.19C912.546 2268.46 925.095 2261.21 928.366 2249ZM555.129 1634.9L551.413 1637.05L902.544 2245.23L906.261 2243.08L909.977 2240.93L558.845 1632.76L555.129 1634.9Z" fill="#82BD83"/>
<path d="M3337.26 1966.26L2909.35 1851.6" stroke="#0D4C60" stroke-width="8.58216" stroke-linecap="round"/>
<path d="M3599.28 1965.95C3608.81 1974.25 3623.27 1973.25 3631.57 1963.71C3639.86 1954.18 3638.86 1939.72 3629.33 1931.42C3619.8 1923.13 3605.34 1924.13 3597.04 1933.66C3588.74 1943.19 3589.74 1957.65 3599.28 1965.95ZM2772.48 2023.14C2782.01 2031.44 2796.47 2030.44 2804.76 2020.91C2813.06 2011.38 2812.06 1996.92 2802.53 1988.62C2793 1980.32 2778.54 1981.32 2770.24 1990.86C2761.94 2000.39 2762.94 2014.85 2772.48 2023.14ZM3614.3 1948.69L3614.01 1944.4L2787.21 2001.6L2787.5 2005.88L2787.8 2010.16L3614.6 1952.97L3614.3 1948.69Z" fill="#0D4C60"/>
<circle cx="1032" cy="989.093" r="130.878" fill="#3A989C"/>
<path d="M1032 989.093C1032 1061.38 1032 1079.21 1032 1119.97C959.722 1119.97 901.126 1061.38 901.126 989.093C901.126 916.812 959.722 858.216 1032 858.216C1032 952.619 1032 916.812 1032 989.093Z" fill="#037A83"/>
<circle cx="1199.36" cy="-10.7276" r="160.915" fill="#0D4C60"/>
<circle cx="135.169" cy="375.469" r="53.6385" fill="#3A989C"/>
<circle cx="2911.5" cy="2666.9" r="332.559" fill="#B8C285"/>
<path d="M1664.54 2078.24C1744.51 2124.41 1846.41 2098.14 1894.28 2019.8C1895.52 2017.77 1894.82 2015.14 1892.76 2013.95L1763.31 1939.21C1759.51 1937.01 1761.06 1931.2 1765.45 1931.2L1914.96 1931.2C1917.33 1931.2 1919.26 1929.28 1919.2 1926.91C1917.7 1869.81 1887.42 1814.81 1834.33 1784.16C1753.12 1737.28 1649.28 1765.1 1602.4 1846.31C1555.51 1927.52 1583.34 2031.36 1664.54 2078.24Z" fill="#056C7F"/>
<path d="M239.134 97.4798C192.285 70.4312 132.717 85.3665 103.996 130.612C102.726 132.613 103.435 135.247 105.488 136.432L174.987 176.557C178.789 178.752 177.232 184.564 172.841 184.564L92.5776 184.564C90.2062 184.564 88.2748 186.49 88.3783 188.859C89.8281 222.045 107.678 253.809 138.578 271.649C186.673 299.417 248.173 282.938 275.941 234.843C303.708 186.747 287.23 125.248 239.134 97.4798Z" fill="#3E3147"/>
<path d="M2724.61 1842.47C2695.74 1792.46 2632.65 1774.53 2581.99 1801.17C2579.89 1802.27 2579.19 1804.91 2580.37 1806.96L2623.8 1882.18C2625.99 1885.98 2621.74 1890.24 2617.94 1888.04L2542.71 1844.61C2540.65 1843.42 2538.02 1844.12 2536.92 1846.22C2520.44 1877.67 2519.94 1916.61 2539 1949.63C2568.59 2000.88 2634.13 2018.44 2685.39 1988.85C2736.64 1959.26 2754.2 1893.72 2724.61 1842.47Z" fill="#0D4C60"/>
<path d="M3771.36 494.401C3755.22 434.165 3694.07 398.007 3633.79 412.415C3632.09 412.823 3631.08 414.568 3631.53 416.26L3657.37 512.69C3658.21 515.825 3654.36 518.048 3652.06 515.754L3581.46 445.151C3580.22 443.911 3578.2 443.909 3577 445.184C3550.54 473.203 3538.8 513.888 3549.5 553.846C3565.92 615.109 3628.89 651.465 3690.15 635.05C3751.42 618.635 3787.77 555.664 3771.36 494.401Z" fill="#9BA064"/>
<path d="M1328.89 2019.59C1321.13 1990.64 1292.13 1973.06 1263.16 1979.12C1261.44 1979.48 1260.44 1981.23 1260.89 1982.92L1271.55 2022.7C1272.39 2025.83 1268.54 2028.06 1266.24 2025.76L1237.12 1996.64C1235.88 1995.4 1233.86 1995.39 1232.69 1996.7C1220.52 2010.36 1215.25 2029.69 1220.34 2048.68C1228.37 2078.65 1259.18 2096.44 1289.16 2088.41C1319.13 2080.38 1336.92 2049.57 1328.89 2019.59Z" fill="#D2A298"/>
<path d="M331.041 429.266C290.534 405.879 238.926 419.133 214.598 458.744C213.91 459.864 214.3 461.326 215.438 461.983L280.285 499.423C282.393 500.64 281.529 503.862 279.095 503.862L204.204 503.862C202.89 503.862 201.821 504.929 201.858 506.243C202.685 535.137 218.034 562.943 244.905 578.457C286.104 602.243 338.783 588.128 362.569 546.93C386.355 505.731 372.239 453.051 331.041 429.266Z" fill="#9BA064"/>
<path d="M3406.68 952.186C3473.33 1018.83 3580.77 1019.84 3648.64 955.192C3650.36 953.557 3650.36 950.827 3648.69 949.152L3540.53 840.991C3537.42 837.887 3540.43 832.676 3544.67 833.812L3692.44 873.408C3694.73 874.022 3697.09 872.661 3697.65 870.356C3711.29 813.653 3695.98 751.408 3651.72 707.149C3584.05 639.484 3474.35 639.484 3406.68 707.149C3339.02 774.814 3339.02 884.521 3406.68 952.186Z" fill="#BAC589"/>
<path d="M1089.81 2084.78C1034.25 2116.86 1014.41 2187.05 1044.25 2243.27C1045.37 2245.37 1048 2246.07 1050.05 2244.89L1135.33 2195.65C1139.14 2193.46 1143.39 2197.71 1141.2 2201.51L1091.95 2286.81C1090.77 2288.86 1091.47 2291.49 1093.56 2292.6C1128.49 2311.07 1171.85 2311.72 1208.59 2290.51C1265.4 2257.71 1284.87 2185.07 1252.07 2128.25C1219.27 2071.44 1146.62 2051.98 1089.81 2084.78Z" fill="#E46F4D"/>
<circle cx="2212.05" cy="2362.24" r="366.887" fill="#80AF6E"/>
<circle cx="2960.84" cy="2639.01" r="248.883" fill="#9BA064"/>
<circle cx="-12.8732" cy="686.573" r="214.554" fill="#9BA064"/>
<mask id="mask7_1130_9607" style="mask-type:alpha" maskUnits="userSpaceOnUse" x="-228" y="472" width="430" height="430">
<circle cx="-12.8732" cy="686.573" r="214.554" fill="#9BA064"/>
</mask>
<g mask="url(#mask7_1130_9607)">
<circle cx="83.6761" cy="877.526" r="96.5493" fill="#B8C285"/>
<circle cx="216.7" cy="744.502" r="96.5493" fill="#B8C285"/>
<circle cx="83.6761" cy="469.873" r="96.5493" fill="#B8C285"/>
</g>
<circle cx="2986.59" cy="1283.03" r="197.39" fill="#363147"/>
<path d="M3183.98 1283.03C3183.98 1392.05 3095.61 1480.42 2986.59 1480.42C2877.58 1480.42 2789.2 1392.05 2789.2 1283.03C2855.71 1283.03 2877.58 1283.03 2986.59 1283.03C3095.61 1283.03 3104.59 1283.03 3183.98 1283.03Z" fill="#251B45"/>
<path d="M3044.52 1178.48C3047.38 1180.13 3047.38 1184.26 3044.52 1185.91L2996.25 1213.78C2993.38 1215.43 2989.81 1213.37 2989.81 1210.06L2989.81 1154.32C2989.81 1151.02 2993.38 1148.95 2996.25 1150.61L3044.52 1178.48Z" fill="#D2A298"/>
<path d="M1225.83 147.955C1224.97 151.146 1220.98 152.214 1218.65 149.878L1191.56 122.791C1189.23 120.455 1190.29 116.467 1193.49 115.612L1230.49 105.697C1233.68 104.842 1236.6 107.762 1235.74 110.953L1225.83 147.955Z" fill="#D2A298"/>
<path d="M242.034 54.2561C243.464 55.0819 243.464 57.1465 242.034 57.9723L215.792 73.123C214.361 73.9488 212.574 72.9165 212.574 71.2649L212.574 40.9635C212.574 39.3119 214.361 38.2796 215.792 39.1054L242.034 54.2561Z" fill="#D2A298"/>
<path d="M295.616 31.2325C296.044 32.8279 294.584 34.2877 292.989 33.8602L272.704 28.425C271.109 27.9976 270.574 26.0034 271.742 24.8355L286.592 9.98627C287.759 8.81838 289.754 9.35272 290.181 10.9481L295.616 31.2325Z" fill="#D2A298"/>
<path d="M2947.4 1177.9C2945.74 1180.76 2941.61 1180.76 2939.96 1177.9L2899.09 1107.1C2897.43 1104.24 2899.5 1100.66 2902.8 1100.66L2984.56 1100.66C2987.86 1100.66 2989.93 1104.24 2988.27 1107.1L2947.4 1177.9Z" fill="#D2A298"/>
<path d="M1359.2 1411.59C1357.77 1412.42 1355.98 1411.38 1355.98 1409.73L1355.98 1327.98C1355.98 1326.32 1357.77 1325.29 1359.2 1326.12L1430 1367C1431.43 1367.82 1431.43 1369.89 1430 1370.71L1359.2 1411.59Z" stroke="#076A7D" stroke-width="4.29108"/>
<path d="M401.103 2151.98L482.859 2151.98L441.981 2222.78L401.103 2151.98Z" stroke="#076A7D" stroke-width="8.58216"/>
<path d="M309.828 1158.08C306.524 1158.08 304.46 1154.5 306.111 1151.64L354.204 1068.35C355.856 1065.48 359.985 1065.48 361.636 1068.35L409.729 1151.64C411.38 1154.5 409.316 1158.08 406.013 1158.08L309.828 1158.08Z" fill="#076A7D"/>
<path d="M368.884 2234.27L382.578 2285.38L331.47 2271.68L368.884 2234.27Z" stroke="#076A7D" stroke-width="6.43111"/>
<path d="M380.787 2495.44L344.448 2516.42L344.448 2474.46L380.787 2495.44Z" stroke="#076A7D" stroke-width="6.43111"/>
<path d="M307.216 2191.79L333.569 2207L307.215 2222.22L307.216 2191.79Z" stroke="#076A7D" stroke-width="6.43111"/>
<path d="M3447.81 2326.28C3445.42 2325.64 3444.62 2322.65 3446.37 2320.9L3483.78 2283.49C3485.53 2281.74 3488.52 2282.54 3489.16 2284.93L3502.86 2336.04C3503.5 2338.43 3501.31 2340.62 3498.92 2339.98L3447.81 2326.28Z" fill="#A0C8C3"/>
<path d="M1401.77 1303.06C1400.17 1302.63 1399.64 1300.64 1400.8 1299.47L1428.21 1272.07C1429.37 1270.9 1431.37 1271.44 1431.8 1273.03L1441.83 1310.46C1442.25 1312.06 1440.79 1313.52 1439.2 1313.09L1401.77 1303.06Z" stroke="#076A7D" stroke-width="4.29108"/>
<path d="M3252.64 2366.07C3249.78 2367.72 3246.2 2365.65 3246.2 2362.35L3246.2 2280.6C3246.2 2277.29 3249.78 2275.23 3252.64 2276.88L3323.44 2317.76C3326.3 2319.41 3326.3 2323.54 3323.44 2325.19L3252.64 2366.07Z" fill="#D2A298"/>
<path d="M3406.42 2326.5C3408.08 2323.64 3412.21 2323.64 3413.86 2326.5L3469.25 2422.44C3470.9 2425.3 3468.84 2428.88 3465.53 2428.88H3354.75C3351.45 2428.88 3349.38 2425.3 3351.03 2422.44L3406.42 2326.5Z" fill="#D2A298"/>
<path d="M1136.1 270.984C1133.24 272.636 1129.66 270.571 1129.66 267.268L1129.66 185.512C1129.66 182.209 1133.24 180.144 1136.1 181.796L1206.9 222.674C1209.76 224.326 1209.76 228.455 1206.9 230.106L1136.1 270.984Z" fill="#D2A298"/>
<path d="M220.991 119.575C218.13 117.924 218.13 113.795 220.991 112.143L259.61 89.8459C262.471 88.1942 266.047 90.2588 266.047 93.562L266.047 138.156C266.047 141.459 262.471 143.524 259.61 141.872L220.991 119.575Z" fill="#D2A298"/>
<path d="M2943.35 1263.11C2945.69 1265.44 2944.62 1269.43 2941.43 1270.29L2909.42 1278.86C2906.23 1279.72 2903.31 1276.8 2904.16 1273.61L2912.74 1241.6C2913.6 1238.41 2917.58 1237.34 2919.92 1239.68L2943.35 1263.11Z" fill="#FEDE88"/>
<path d="M2457.8 1702.19C2461.11 1702.19 2463.17 1705.76 2461.52 1708.62L2444.95 1737.32C2443.3 1740.18 2439.17 1740.18 2437.52 1737.32L2420.95 1708.62C2419.3 1705.76 2421.37 1702.19 2424.67 1702.19L2457.8 1702.19Z" fill="#FEDE88"/>
<circle cx="3698.91" cy="1943.86" r="38.6197" fill="#FFCB46"/>
<circle cx="476.31" cy="274.629" r="38.6197" fill="#FFCB46"/>
<circle cx="476.31" cy="369.033" r="38.6197" fill="#FFCB46"/>
<circle cx="3480.06" cy="2179.87" r="42.9108" fill="#3A989C"/>
<circle cx="3413.55" cy="2233.51" r="27.892" fill="#3A989C"/>
<circle cx="2990.88" cy="1613.45" r="21.4554" fill="#0D4C60"/>
<circle cx="3248.35" cy="1626.32" r="21.4554" fill="#0D4C60"/>
<circle cx="2016.81" cy="287.502" r="21.4554" fill="#559CC0"/>
<path d="M1444.84 780.994C1445.67 780.156 1445.67 778.798 1444.84 777.96C1444 777.122 1442.64 777.122 1441.8 777.96L1444.84 780.994ZM1318.39 904.409C1313.92 899.94 1306.67 899.94 1302.2 904.409C1297.74 908.878 1297.74 916.123 1302.2 920.592C1306.67 925.061 1313.92 925.061 1318.39 920.592C1322.86 916.123 1322.86 908.878 1318.39 904.409ZM1443.32 779.477L1441.8 777.96L1308.78 910.983L1310.3 912.5L1311.81 914.018L1444.84 780.994L1443.32 779.477Z" fill="#1C998D"/>
<path d="M1424.64 901.126L1347.4 823.887" stroke="#1C998D" stroke-width="4.29108" stroke-linecap="round"/>
<path d="M1426.59 849.634H1317.36" stroke="#1C998D" stroke-width="4.29108" stroke-linecap="round"/>
<path d="M1373.15 961.202L1373.15 806.723" stroke="#1C998D" stroke-width="4.29108" stroke-linecap="round"/>
<circle cx="326.122" cy="1956.73" r="47.2019" fill="#0D4C60"/>
<circle cx="364.742" cy="2072.59" r="47.2019" fill="#0D4C60"/>
<circle cx="1119.97" cy="1888.07" r="47.2019" fill="#0D4C60"/>
<path d="M1141.43 1967.07C1141.43 1980.1 1130.86 1990.67 1117.83 1990.67C1104.79 1990.67 1094.22 1980.1 1094.22 1967.07C1094.22 1954.04 1104.79 1943.47 1117.83 1943.47C1130.86 1943.47 1141.43 1954.04 1141.43 1967.07Z" fill="#0D4C60"/>
<path d="M1141.43 2023.24C1141.43 2036.28 1130.86 2046.84 1117.83 2046.84C1104.79 2046.84 1094.22 2036.28 1094.22 2023.24C1094.22 2010.21 1104.79 1999.64 1117.83 1999.64C1130.86 1999.64 1141.43 2010.21 1141.43 2023.24Z" fill="#0D4C60"/>
<circle cx="3126.05" cy="1564.1" r="79.3849" fill="#84C2C1"/>
<circle cx="3031.65" cy="989.093" r="79.3849" fill="#055F6F"/>
<circle cx="3269.8" cy="1506.17" r="47.2019" fill="#84C2C1"/>
<circle cx="2907.21" cy="847.488" r="81.5305" stroke="#82BD83" stroke-width="4.29108"/>
<circle cx="2269.98" cy="386.197" r="85.8216" stroke="#0D4C60" stroke-width="8.58216"/>
<circle cx="3962.81" cy="1950.29" r="130.878" fill="#047B88"/>
<circle cx="2913.64" cy="2364.38" r="12.8732" fill="white"/>
<path d="M3605.78 -381.255C3617.99 -384.526 3625.23 -397.075 3621.96 -409.284C3618.69 -421.493 3606.14 -428.738 3593.93 -425.467C3581.73 -422.195 3574.48 -409.646 3577.75 -397.438C3581.02 -385.229 3593.57 -377.984 3605.78 -381.255ZM3191.39 336.487C3203.6 333.216 3210.85 320.667 3207.57 308.458C3204.3 296.249 3191.75 289.004 3179.55 292.275C3167.34 295.547 3160.09 308.096 3163.36 320.305C3166.63 332.513 3179.18 339.759 3191.39 336.487ZM3599.86 -403.361L3596.14 -405.506L3181.75 312.236L3185.47 314.381L3189.19 316.527L3603.57 -401.215L3599.86 -403.361Z" fill="#05394A"/>
<path d="M3316.86 -381.255C3304.65 -384.526 3297.41 -397.075 3300.68 -409.284C3303.95 -421.493 3316.5 -428.738 3328.71 -425.467C3340.92 -422.195 3348.16 -409.646 3344.89 -397.437C3341.62 -385.229 3329.07 -377.983 3316.86 -381.255ZM3731.25 336.487C3719.04 333.216 3711.79 320.667 3715.07 308.458C3718.34 296.249 3730.89 289.004 3743.1 292.275C3755.3 295.547 3762.55 308.096 3759.28 320.305C3756.01 332.513 3743.46 339.759 3731.25 336.487ZM3322.78 -403.361L3326.5 -405.506L3740.89 312.236L3737.17 314.381L3733.46 316.527L3319.07 -401.215L3322.78 -403.361Z" fill="#0D4C60"/>
<path d="M3659.79 -311.11C3672 -307.838 3684.55 -315.083 3687.82 -327.292C3691.09 -339.501 3683.84 -352.05 3671.64 -355.321C3659.43 -358.593 3646.88 -351.348 3643.61 -339.139C3640.34 -326.93 3647.58 -314.381 3659.79 -311.11ZM2942.05 103.279C2954.26 106.55 2966.8 99.3051 2970.08 87.0964C2973.35 74.8876 2966.1 62.3385 2953.89 59.0672C2941.68 55.7958 2929.14 63.0411 2925.86 75.2498C2922.59 87.4586 2929.84 100.008 2942.05 103.279ZM3665.71 -333.215L3663.57 -336.932L2945.82 77.4569L2947.97 81.1731L2950.12 84.8893L3667.86 -329.499L3665.71 -333.215Z" fill="#05394A"/>
<ellipse cx="31.798" cy="31.798" rx="31.798" ry="31.798" transform="matrix(-0.866025 -0.5 -0.5 0.866025 3176.45 1516.51)" fill="#DCF3DD"/>
<ellipse cx="25.8361" cy="25.8361" rx="25.8361" ry="25.8361" transform="matrix(-0.866025 -0.5 -0.5 0.866025 2265.07 1878.71)" fill="#DCF3DD"/>
<path d="M2074.66 710.173C2070.57 717.252 2073 726.304 2080.07 730.391C2087.15 734.478 2096.2 732.052 2100.29 724.973C2104.38 717.895 2101.95 708.843 2094.87 704.756C2087.8 700.669 2078.74 703.095 2074.66 710.173Z" fill="#DCF3DD"/>
<ellipse cx="31.798" cy="31.798" rx="31.798" ry="31.798" transform="matrix(-0.866025 -0.5 -0.5 0.866025 1627.37 1319.12)" fill="#DCF3DD"/>
<circle cx="17.8958" cy="17.8958" r="17.8958" transform="matrix(-0.866025 -0.5 -0.5 0.866025 3125.59 1592.72)" fill="#DCF3DD"/>
<ellipse cx="21.3783" cy="21.3783" rx="21.3783" ry="21.3783" transform="matrix(-0.866025 -0.5 -0.5 0.866025 3628.58 2102.55)" fill="#DCF3DD"/>
<mask id="mask8_1130_9607" style="mask-type:alpha" maskUnits="userSpaceOnUse" x="1845" y="1995" width="734" height="735">
<circle cx="2212.05" cy="2362.24" r="366.887" fill="#80AF6E"/>
</mask>
<g mask="url(#mask8_1130_9607)">
<circle cx="1712.14" cy="2364.38" r="248.883" fill="#46885F"/>
<circle cx="2711.96" cy="2364.38" r="248.883" fill="#46885F"/>
<circle cx="1962.1" cy="2797.32" r="248.883" transform="rotate(-60 1962.1 2797.32)" fill="#46885F"/>
<circle cx="2462.01" cy="1931.45" r="248.883" transform="rotate(-60 2462.01 1931.45)" fill="#46885F"/>
<circle cx="2462.01" cy="2797.32" r="248.883" transform="rotate(-120 2462.01 2797.32)" fill="#46885F"/>
<circle cx="1962.1" cy="1931.45" r="248.883" transform="rotate(-120 1962.1 1931.45)" fill="#46885F"/>
</g>
<mask id="mask9_1130_9607" style="mask-type:alpha" maskUnits="userSpaceOnUse" x="2042" y="964" width="242" height="243">
<circle cx="2163.08" cy="1085.54" r="120.658" transform="rotate(75 2163.08 1085.54)" fill="#80AF6E"/>
</mask>
<g mask="url(#mask9_1130_9607)">
<circle cx="2119.85" cy="926.921" r="81.8499" transform="rotate(75 2119.85 926.921)" fill="#0D4C60"/>
<circle cx="2204.95" cy="1244.53" r="81.8499" transform="rotate(75 2204.95 1244.53)" fill="#0D4C60"/>
<circle cx="2003.6" cy="1043.17" r="81.8499" transform="rotate(15 2003.6 1043.17)" fill="#0D4C60"/>
<circle cx="2321.2" cy="1128.27" r="81.8499" transform="rotate(15 2321.2 1128.27)" fill="#0D4C60"/>
<circle cx="2046.15" cy="1201.98" r="81.8499" transform="rotate(-45 2046.15 1201.98)" fill="#0D4C60"/>
<circle cx="2278.65" cy="969.472" r="81.8499" transform="rotate(-45 2278.65 969.472)" fill="#0D4C60"/>
</g>
<circle cx="2072.59" cy="2033.97" r="102.986" fill="#A7D243"/>
<circle cx="1261.58" cy="583.587" r="72.9483" fill="#E46F4D"/>
<circle cx="3106.74" cy="1368.85" r="42.9108" fill="#E46F4D"/>
<circle cx="1295.91" cy="480.601" r="17.1643" fill="#E46F4D"/>
<circle cx="302.521" cy="315.394" r="23.6009" fill="#559CC0"/>
<circle cx="336.85" cy="263.901" r="23.6009" fill="#559CC0"/>
<circle cx="3499.37" cy="1473.99" r="130.878" fill="#82BD83"/>
<circle cx="1304.49" cy="227.427" r="42.9108" fill="#0D4C60"/>
<circle cx="2385.84" cy="673.7" r="60.0751" fill="#129585"/>
<path d="M2222.96 2353.66C2222.96 2360.77 2217.19 2366.53 2210.08 2366.53C2202.97 2366.53 2197.21 2360.77 2197.21 2353.66C2197.21 2346.55 2202.97 2340.78 2210.08 2340.78C2217.19 2340.78 2222.96 2346.55 2222.96 2353.66Z" fill="#CBECD4"/>
<path d="M2062.48 2426.72C2060.74 2432.79 2064.25 2439.13 2070.33 2440.87C2076.41 2442.61 2082.74 2439.09 2084.48 2433.02C2086.22 2426.94 2082.71 2420.61 2076.63 2418.87C2070.56 2417.13 2064.22 2420.64 2062.48 2426.72ZM2401.25 2238.78C2399.51 2244.85 2403.02 2251.19 2409.1 2252.93C2415.17 2254.67 2421.51 2251.15 2423.25 2245.08C2424.99 2239 2421.47 2232.67 2415.4 2230.93C2409.32 2229.19 2402.99 2232.7 2401.25 2238.78ZM2073.48 2429.87L2074.52 2431.74L2413.29 2243.8L2412.25 2241.93L2411.21 2240.05L2072.44 2427.99L2073.48 2429.87Z" fill="#CBECD4"/>
<path d="M2202.42 2656.9C2206.89 2661.36 2214.13 2661.36 2218.6 2656.9C2223.07 2652.43 2223.07 2645.18 2218.6 2640.71C2214.13 2636.24 2206.89 2636.24 2202.42 2640.71C2197.95 2645.18 2197.95 2652.43 2202.42 2656.9ZM2202.42 2269.49C2206.89 2273.96 2214.13 2273.96 2218.6 2269.49C2223.07 2265.02 2223.07 2257.78 2218.6 2253.31C2214.13 2248.84 2206.89 2248.84 2202.42 2253.31C2197.95 2257.78 2197.95 2265.02 2202.42 2269.49ZM2210.51 2648.8L2212.65 2648.8L2212.65 2261.4L2210.51 2261.4L2208.36 2261.4L2208.36 2648.8L2210.51 2648.8Z" fill="#CBECD4"/>
<path d="M2361.79 2437.55C2363.85 2443.53 2370.36 2446.71 2376.33 2444.66C2382.31 2442.6 2385.49 2436.1 2383.44 2430.12C2381.38 2424.14 2374.87 2420.96 2368.9 2423.01C2362.92 2425.07 2359.74 2431.58 2361.79 2437.55ZM1997.4 2259.49C1999.46 2265.47 2005.97 2268.65 2011.94 2266.6C2017.92 2264.54 2021.1 2258.03 2019.05 2252.06C2016.99 2246.08 2010.48 2242.9 2004.51 2244.95C1998.53 2247.01 1995.35 2253.52 1997.4 2259.49ZM2372.62 2433.84L2373.56 2431.91L2009.17 2253.85L2008.22 2255.78L2007.28 2257.7L2371.67 2435.76L2372.62 2433.84Z" fill="#CBECD4"/>
<path d="M2597.89 2103.02C2597.26 2105.39 2594.29 2106.19 2592.55 2104.45L2549.48 2061.38C2547.74 2059.64 2548.54 2056.67 2550.91 2056.04L2609.74 2040.27C2612.12 2039.64 2614.29 2041.81 2613.66 2044.19L2597.89 2103.02Z" fill="#00509A"/>
<path d="M2541.89 2135.19C2540.81 2136.27 2538.96 2135.77 2538.57 2134.3L2528.8 2097.83C2528.4 2096.35 2529.75 2095 2531.22 2095.4L2567.7 2105.17C2569.17 2105.57 2569.67 2107.41 2568.59 2108.49L2541.89 2135.19Z" fill="#00509A"/>
<path d="M3029.38 2479.32C3084.95 2511.4 3155.66 2493.48 3189.42 2439.52C3190.68 2437.52 3189.97 2434.88 3187.92 2433.7L3102.64 2384.46C3098.84 2382.26 3100.39 2376.45 3104.78 2376.45L3203.27 2376.45C3205.65 2376.45 3207.58 2374.53 3207.49 2372.16C3206.02 2332.68 3184.9 2294.8 3148.16 2273.59C3091.35 2240.79 3018.7 2260.25 2985.9 2317.06C2953.1 2373.87 2972.57 2446.52 3029.38 2479.32Z" fill="#FFCB46"/>
<path d="M2906.87 2697.92C2902.4 2702.39 2902.4 2709.64 2906.87 2714.11C2911.34 2718.58 2918.58 2718.58 2923.05 2714.11C2927.52 2709.64 2927.52 2702.39 2923.05 2697.92C2918.58 2693.46 2911.34 2693.46 2906.87 2697.92ZM2906.87 2463.57C2902.4 2468.04 2902.4 2475.28 2906.87 2479.75C2911.34 2484.22 2918.58 2484.22 2923.05 2479.75C2927.52 2475.28 2927.52 2468.04 2923.05 2463.57C2918.58 2459.1 2911.34 2459.1 2906.87 2463.57ZM2914.96 2706.02L2917.11 2706.02L2917.11 2471.66L2914.96 2471.66L2912.81 2471.66L2912.81 2706.02L2914.96 2706.02Z" fill="#545940"/>
<path d="M2905.06 2707.46C2898.74 2707.46 2893.62 2712.59 2893.62 2718.9C2893.62 2725.22 2898.74 2730.35 2905.06 2730.35C2911.38 2730.35 2916.5 2725.22 2916.5 2718.9C2916.5 2712.59 2911.38 2707.46 2905.06 2707.46ZM3070.77 2541.75C3064.45 2541.75 3059.33 2546.87 3059.33 2553.19C3059.33 2559.51 3064.45 2564.63 3070.77 2564.63C3077.09 2564.63 3082.22 2559.51 3082.22 2553.19C3082.22 2546.87 3077.09 2541.75 3070.77 2541.75ZM2905.06 2718.9L2906.58 2720.42L3072.29 2554.71L3070.77 2553.19L3069.26 2551.67L2903.54 2717.39L2905.06 2718.9Z" fill="#545940"/>
<path d="M2917.72 2718.9C2917.72 2725.22 2922.85 2730.35 2929.17 2730.35C2935.49 2730.35 2940.61 2725.22 2940.61 2718.9C2940.61 2712.59 2935.49 2707.46 2929.17 2707.46C2922.85 2707.46 2917.72 2712.59 2917.72 2718.9ZM2752.01 2553.19C2752.01 2559.51 2757.13 2564.63 2763.45 2564.63C2769.77 2564.63 2774.9 2559.51 2774.9 2553.19C2774.9 2546.87 2769.77 2541.75 2763.45 2541.75C2757.13 2541.75 2752.01 2546.87 2752.01 2553.19ZM2929.17 2718.9L2930.68 2717.39L2764.97 2551.67L2763.45 2553.19L2761.94 2554.71L2927.65 2720.42L2929.17 2718.9Z" fill="#545940"/>
<circle cx="2254.96" cy="2057.57" r="40.7652" fill="#0D4C60"/>
<circle cx="2338.64" cy="2081.17" r="25.7465" fill="#0D4C60"/>
<path d="M437.69 1726.09C437.69 1734.97 430.486 1742.18 421.598 1742.18C412.711 1742.18 405.507 1734.97 405.507 1726.09C405.507 1717.2 412.711 1709.99 421.598 1709.99C430.486 1709.99 437.69 1717.2 437.69 1726.09Z" fill="#A35B53"/>
</g>
<defs>
<clipPath id="clip0_1130_9607">
<rect width="2629" height="3943.5" fill="white" transform="translate(0.00012207 2629) rotate(-90)"/>
</clipPath>
</defs>
</svg>
